<?xml version="1.0" encoding="utf-8"?>
<!-- Generator: Adobe Illustrator 23.0.4, SVG Export Plug-In . SVG Version: 6.00 Build 0)  -->
<svg version="1.1" id="Layer_2" xmlns="http://www.w3.org/2000/svg" xmlns:xlink="http://www.w3.org/1999/xlink" x="0px" y="0px"
	 viewBox="0 0 19.73 19.73" style="enable-background:new 0 0 19.73 19.73;" xml:space="preserve">
<style type="text/css">
	.st0{fill:#FFFFFF;}
	.st1{fill:none;}
</style>
<path class="st0" d="M18.73,19.73c-0.26,0-0.51-0.1-0.71-0.29l-4.11-4.11c-3.37,2.67-8.29,2.45-11.4-0.67C0.89,13.05,0,10.89,0,8.59
	s0.89-4.45,2.52-6.08C4.14,0.89,6.3,0,8.59,0s4.45,0.89,6.08,2.52c1.62,1.62,2.52,3.78,2.52,6.08c0,1.96-0.65,3.82-1.85,5.33
	l4.11,4.11c0.39,0.39,0.39,1.02,0,1.41C19.25,19.64,18.99,19.73,18.73,19.73z M8.59,2C6.83,2,5.18,2.69,3.93,3.93S2,6.83,2,8.59
	c0,1.76,0.69,3.42,1.93,4.66c1.25,1.25,2.9,1.93,4.66,1.93c1.76,0,3.41-0.68,4.66-1.93c0,0,0,0,0,0c1.24-1.25,1.93-2.9,1.93-4.66
	c0-1.76-0.69-3.42-1.93-4.66S10.35,2,8.59,2z"/>
<rect class="st1" width="19.73" height="19.73"/>
</svg>
