<?xml version="1.0" encoding="UTF-8"?>
<svg width="32px" height="27px" viewBox="0 0 32 27" version="1.1" xmlns="http://www.w3.org/2000/svg" xmlns:xlink="http://www.w3.org/1999/xlink">
    <!-- Generator: Sketch 57.1 (83088) - https://sketch.com -->
    <title>Paperplane</title>
    <desc>Created with Sketch.</desc>
    <g id="ACNW---Desktop" stroke="none" stroke-width="1" fill="none" fill-rule="evenodd">
        <g id="Contact---Desktop" transform="translate(-1192.000000, -1033.000000)" fill="#FFFFFF">
            <g id="interested" transform="translate(0.000000, 522.000000)">
                <g id="BT" transform="translate(1125.806505, 498.000000)">
                    <path d="M94.323987,15.9444145 L79.9647123,29.8357566 L68.6214418,26.4086585 L94.323987,15.9444145 Z M91.7504564,37.783506 L81.3935744,30.6133418 L95.9172472,16.5641143 L91.7504564,37.783506 Z M81.2925278,37.1829497 L81.0332011,32.2446918 L83.9418434,34.2553613 L81.2925278,37.1829497 Z M67.0027226,26.503587 C67.040615,27.1420357 67.4643398,27.6796352 68.0775269,27.8629796 L79.4336255,31.2961958 L79.8508375,39.1239523 C79.8697837,39.4339996 80.0783897,39.7057597 80.3756088,39.8068063 C80.4579065,39.8383834 80.5463223,39.8512116 80.62862,39.8512116 C80.8498568,39.8512116 81.0584628,39.7627958 81.21023,39.591885 L85.2252536,35.1470186 L90.9158351,39.0860599 C91.1688463,39.2630888 91.4660654,39.3580173 91.775718,39.3580173 C92.4903464,39.3580173 93.1100463,38.8521922 93.2618135,38.1438793 L97.9849528,14.0728814 C98.0417915,13.7944112 97.9342321,13.5037048 97.7193107,13.3264786 C97.4980739,13.1433316 97.2008548,13.0989264 96.9352128,13.2064857 L67.9133261,25.0176888 C67.3252033,25.2831335 66.9648301,25.8649409 67.0027226,26.503587 L67.0027226,26.503587 Z" id="Paperplane"></path>
                </g>
            </g>
        </g>
    </g>
</svg>