<?xml version="1.0" encoding="UTF-8"?>
<svg width="140px" height="51px" viewBox="0 0 140 51" version="1.1" xmlns="http://www.w3.org/2000/svg" xmlns:xlink="http://www.w3.org/1999/xlink">
    <!-- Generator: Sketch 55.2 (78181) - https://sketchapp.com -->
    <title>Logo volg</title>
    <desc>Created with Sketch.</desc>
    <defs>
        <polygon id="path-1" points="0.634337561 0.102565471 8.3119026 0.102565471 8.3119026 16.0202629 0.634337561 16.0202629"></polygon>
    </defs>
    <g id="Page-1" stroke="none" stroke-width="1" fill="none" fill-rule="evenodd">
        <g id="Search---Desktop" transform="translate(-151.000000, -24.000000)">
            <g id="Menu">
                <g id="Logo-volg" transform="translate(151.000000, 24.231277)">
                    <path d="M9.15313503,17.0726255 C9.0705042,16.3331639 8.61940733,14.1560945 8.61940733,14.0338346 C8.57809191,13.8685729 8.49630425,13.6636822 8.37235801,13.4166329 C8.12615186,12.9646928 7.67421182,13.1291113 7.5106365,13.4166329 C7.22227177,14.1974099 6.97606563,15.4714424 6.85211938,17.1957286 C6.81164714,17.4023057 6.81164714,17.6071964 6.81164714,17.7302995 C6.81164714,18.346658 9.11181962,18.3053426 9.19445045,17.7716149 C9.19445045,17.688984 9.19445045,17.4427779 9.15313503,17.0726255 M15.4794525,29.0279575 C15.1093001,29.3972667 12.1927691,29.2741636 11.8647753,29.2741636 C11.4541507,29.2328482 11.2079445,29.1502174 11.0426829,28.9866421 C10.6733737,28.6578051 10.6320582,28.0414465 10.4684829,26.7269418 C10.3858521,26.1105833 10.3445367,25.618171 10.2619059,25.289334 C10.2214336,24.8787094 10.139646,22.9065307 8.70119498,22.8652153 C8.49630425,22.8238999 8.37235801,22.8238999 8.37235801,22.8238999 C6.23660402,22.8238999 5.90776704,22.9065307 5.6615609,25.0009693 C5.62108866,25.3298063 5.41451158,26.4394203 5.08651778,28.3298113 C4.96257153,28.9453266 4.63457773,29.2328482 4.05953461,29.2328482 C2.78550213,29.2741636 1.71804672,29.2741636 0.854638866,29.2328482 C-0.295447374,29.1915328 -0.00708264253,28.3298113 0.156492673,27.1384096 C1.1430036,21.5515537 4.05953461,4.37867511 4.42884383,2.11981805 C4.67504997,0.763997905 5.00388695,0.517791759 6.31923485,0.517791759 L10.0570151,0.517791759 C10.4684829,0.558264002 10.7964767,0.640894832 10.9608952,0.763997905 C11.2484168,1.05151946 11.4128353,1.79098107 11.5359383,2.44781185 C12.6860246,9.2673848 15.6025556,26.4798925 15.643871,26.8095726 C15.8487617,28.0001311 15.8091327,28.7395927 15.4794525,29.0279575" id="Fill-1" fill="#FEFEFE"></path>
                    <path d="M21.5339314,29.2739107 C20.7531544,29.2739107 20.1789545,29.2739107 19.7674867,29.2325952 C18.6587158,29.1508076 18.7818189,28.1238244 18.7818189,26.972895 L18.7818189,2.48887431 C18.7818189,1.50320656 18.8636066,0.887691197 19.0280251,0.72327271 C19.4394929,0.311804906 21.9032407,0.394435735 22.6840177,0.43575115 C23.7936317,0.558011051 23.6292132,1.46273432 23.6292132,2.8590267 L23.6292132,27.1794721 C23.6292132,29.2325952 23.5474255,29.2739107 21.5339314,29.2739107" id="Fill-3" fill="#FEFEFE"></path>
                    <path d="M36.0226572,7.74748344 C35.9400264,6.43297871 35.4062987,5.85793559 34.0504785,5.52909862 C33.7629569,5.4877832 33.5985385,5.44646779 33.4349631,5.40683872 C31.1339475,5.11847399 31.5858875,6.22724481 31.5858875,9.63703129 C31.5858875,11.4447915 31.627203,12.5948777 31.627203,12.6775085 C31.627203,13.3756547 31.9560399,13.7862794 32.6541861,13.9920133 C34.1744248,14.3621657 35.6120326,13.4574424 35.9400264,11.9380469 C35.9813418,11.6918408 36.0226572,11.5265791 36.0226572,11.4447915 L36.0226572,7.74748344 Z M41.4450946,28.411093 C41.5268822,28.8217177 41.2806761,29.19187 40.828736,29.2323423 C39.7199652,29.3562885 38.4872482,29.3562885 37.131428,29.2736577 C36.2275479,29.1505546 36.105288,28.2062023 35.8582387,27.0552729 C35.7351356,26.4397575 35.4467709,25.3301435 35.0361463,23.7281172 L34.2553692,20.4009616 C34.0917939,19.6201846 33.88606,18.551886 32.6955015,18.7163045 C31.5040999,18.880723 31.5858875,19.990337 31.5445721,21.2626831 L31.5445721,27.0552729 C31.5445721,28.28799 31.7089906,29.2323423 30.5589044,29.2736577 C29.6137089,29.3149731 28.6271979,29.3149731 27.6423734,29.2736577 C26.5327594,29.2323423 26.6971779,28.2466745 26.6971779,26.8908544 L26.6971779,2.61256761 C26.6971779,1.58558444 26.7789655,0.969225904 26.9846994,0.764335173 C27.3548518,0.394182784 28.5462535,0.476813613 30.9282136,0.476813613 L33.1061262,0.476813613 C34.1331093,0.435498199 35.324511,0.599073514 36.6381725,0.969225904 C38.8565574,1.50379678 40.5007422,3.43466004 40.5825299,5.73483252 C40.6238453,6.84444652 40.6238453,9.26772207 40.5825299,13.0468178 C40.5825299,13.9920133 40.1719053,14.977681 39.3911282,15.9633488 C38.8160851,16.6623381 38.6929821,17.5249028 38.9391882,18.551886 C39.3084974,19.8663907 40.047959,22.6606618 41.157573,27.0148006 C41.3219915,27.5485283 41.4037792,28.0409406 41.4450946,28.411093 L41.4450946,28.411093 Z" id="Fill-5" fill="#FEFEFE"></path>
                    <path d="M57.3843286,24.0567856 C56.2755578,29.8080599 48.7165233,32.1082324 44.4846444,26.3578012 C43.869129,25.5770242 43.6229228,24.5087256 43.6229228,23.1529055 L43.5816074,6.8855933 C43.4989766,4.37884375 45.224106,1.66804663 47.8944308,0.681535709 C48.4290017,0.476644979 48.8809418,0.394857321 49.2907232,0.394857321 C50.4821249,0.353541906 51.3455327,0.394857321 51.8801036,0.394857321 C52.2494128,0.435329564 52.6591943,0.476644979 52.9888744,0.599748052 C53.9745422,0.969057269 55.1659438,1.91425278 56.521764,3.51712224 C57.7536379,4.99604545 57.547904,8.19925485 57.5074317,9.43197192 C57.4669595,10.4176397 57.1785947,10.664689 56.192927,10.664689 C55.3295191,10.7051612 54.509113,10.7051612 53.6457052,10.664689 C52.495619,10.5829013 52.7005097,10.4176397 52.6591943,7.82994564 C52.5782498,6.26839159 51.5504234,5.20093618 50.4003372,5.20093618 C49.8252941,5.20093618 49.3320386,5.44714233 48.921414,5.89908237 C48.1001647,6.80296247 48.1819524,7.74731481 48.1819524,8.77514115 C48.1414801,13.5399046 48.1414801,17.4834188 48.1819524,20.6883145 C48.1819524,21.2633576 48.1819524,21.7970853 48.2645832,22.2903408 C48.3876863,23.317324 49.0040448,24.4674102 50.2772341,24.550041 C51.5504234,24.6318287 52.6195652,23.4412702 52.6591943,21.9210316 L52.6591943,19.6613314 C52.7418251,18.7574513 52.947559,18.4699297 53.8101237,18.4699297 C54.6726884,18.4286143 55.6178839,18.4286143 56.5622362,18.4699297 C57.1381225,18.5112451 57.4669595,18.8400821 57.4669595,19.414282 C57.5892194,21.7152977 57.547904,23.2346931 57.3843286,24.0567856" id="Fill-7" fill="#FEFEFE"></path>
                    <path d="M69.5263388,21.6326669 L69.5263388,7.74731481 C69.5263388,7.17311486 69.4445512,6.72033164 69.3214481,6.30970701 C68.6646173,4.29621292 65.6241401,4.54326223 65.3366185,6.63854398 C65.2953031,6.8855933 65.2953031,7.29621793 65.2953031,7.95304871 L65.2953031,21.3451453 C65.2953031,22.1672377 65.3366185,22.7827531 65.501037,23.1115901 C66.1578678,24.7962472 68.5406711,24.8375626 69.2801327,23.1942209 C69.4445512,22.8240685 69.5263388,22.2903408 69.5263388,21.6326669 M74.2514732,24.7136164 C74.2101578,25.0837687 74.0448961,25.4117625 73.8400054,25.7819149 C70.5954806,30.9986184 63.7759076,30.6706246 61.1468982,25.7405995 C60.6536427,24.8375626 60.4479088,23.769264 60.4479088,22.4547593 L60.4479088,7.04916861 C60.3661212,4.62589306 61.5162074,2.57192673 63.8981675,0.846797368 C64.391423,0.476644979 64.843363,0.270911077 65.3770907,0.188280247 C68.6233019,-0.304132043 70.6764251,0.148651176 72.4023976,1.79114971 C74.127527,3.39317599 74.6620978,5.73550706 74.6620978,7.91257647 L74.7034133,21.5095638 C74.7034133,21.9615038 74.579467,23.0298024 74.2514732,24.7136164" id="Fill-9" fill="#FEFEFE"></path>
                    <path d="M86.6071431,21.6326669 L86.6071431,7.74731481 C86.6071431,7.17311486 86.5253554,6.72033164 86.4022524,6.30970701 C85.7454216,4.29621292 82.7049443,4.54326223 82.4174228,6.63854398 C82.3761074,6.8855933 82.3761074,7.29621793 82.3761074,7.95304871 L82.3761074,21.3451453 C82.3761074,22.1672377 82.4174228,22.7827531 82.5818413,23.1115901 C83.238672,24.7962472 85.6214753,24.8375626 86.360937,23.1942209 C86.5253554,22.8240685 86.6071431,22.2903408 86.6071431,21.6326669 M91.3322775,24.7136164 C91.2909621,25.0837687 91.1257004,25.4117625 90.9208097,25.7819149 C87.6762849,30.9986184 80.8567119,30.6706246 78.2277024,25.7405995 C77.734447,24.8375626 77.5287131,23.769264 77.5287131,22.4547593 L77.5287131,7.04916861 C77.4469254,4.62589306 78.5970117,2.57192673 80.9789718,0.846797368 C81.4722273,0.476644979 81.9241673,0.270911077 82.457895,0.188280247 C85.7041062,-0.304132043 87.7572293,0.148651176 89.4832019,1.79114971 C91.2083312,3.39317599 91.7429021,5.73550706 91.7429021,7.91257647 L91.7842175,21.5095638 C91.7842175,21.9615038 91.6602713,23.0298024 91.3322775,24.7136164" id="Fill-11" fill="#FEFEFE"></path>
                    <path d="M107.167717,28.329474 C107.126402,29.4382448 106.182049,29.2738263 105.278169,29.2738263 L96.85657,29.2738263 C95.0083376,29.2738263 94.9257068,29.1911955 94.9257068,27.3429631 L94.9257068,2.48963317 C94.9257068,0.476982248 94.9670222,0.394351418 96.9796731,0.394351418 C97.8017655,0.394351418 98.3768086,0.394351418 98.7874333,0.435666833 C99.9375195,0.518297662 99.773101,1.42133459 99.773101,2.98204546 L99.773101,21.3041671 C99.773101,22.1262596 99.8144164,22.6599873 99.8144164,22.9475089 C99.9788349,24.7139536 100.47209,24.3438012 104.00498,24.4264321 C106.674462,24.4264321 107.126402,24.2206982 107.167717,25.4120998 C107.209033,26.3986107 107.209033,27.3429631 107.167717,28.329474" id="Fill-13" fill="#FEFEFE"></path>
                    <path d="M122.674994,28.3698619 C122.592363,29.3563729 121.606696,29.273742 120.744131,29.273742 L111.830119,29.273742 C111.254233,29.273742 110.556087,29.273742 110.185935,28.9457482 C109.816625,28.6169112 109.857941,28.0823404 109.857941,26.5621017 L109.857941,2.65396734 C109.857941,0.599157831 109.899256,0.518213345 111.911064,0.518213345 L120.785446,0.518213345 C121.729799,0.518213345 122.26437,0.640473246 122.46926,0.805734905 C122.83857,1.17504412 122.798097,3.22901046 122.71631,4.17420597 C122.633679,5.15987372 121.771114,5.07724289 120.579713,5.07724289 L116.512252,5.07724289 C115.157275,5.1185583 114.787966,5.52918294 114.705335,6.80321542 C114.66402,8.19950781 114.66402,9.55532795 114.746651,10.8698327 C114.746651,11.4044036 114.910226,11.814185 115.11596,12.0612343 C115.609215,12.5131744 116.512252,12.4727021 117.786285,12.4727021 C118.443115,12.4727021 118.936371,12.4727021 119.223892,12.5131744 C120.20956,12.5131744 120.456609,12.8006959 120.497925,13.7863637 C120.538397,14.6497715 120.538397,15.5123362 120.456609,16.3740577 C120.456609,16.949944 120.127772,17.2374656 119.552729,17.278781 C118.936371,17.3200964 117.991175,17.3200964 116.799774,17.3200964 C115.239906,17.3200964 114.828438,17.5249871 114.746651,19.2914319 C114.66402,20.2770997 114.66402,21.3867137 114.705335,22.6607461 C114.787966,23.9744077 115.157275,24.3850323 116.512252,24.4263477 L120.538397,24.4263477 C121.771114,24.4676632 122.592363,24.3445601 122.71631,25.2897556 C122.798097,26.357211 122.798097,27.3841942 122.674994,28.3698619" id="Fill-15" fill="#FEFEFE"></path>
                    <path d="M134.886988,8.52809183 C134.886988,7.99436412 134.886988,7.62505491 134.846515,7.419321 C134.723412,6.06350086 133.983951,5.36535467 132.668603,5.28272384 C131.108735,5.15962077 130.61548,5.52892999 130.655952,7.04916861 L130.655952,22.1259223 C130.655952,23.1115901 130.61548,23.9336825 131.395414,24.2616763 C132.956968,24.8375626 134.886988,23.769264 134.886988,22.1672377 L134.886988,8.52809183 Z M139.735225,7.17311486 L139.735225,22.2490254 C139.735225,23.7279486 139.365916,25.0011379 138.666083,26.1107519 C136.078389,29.9724784 134.517679,29.2734891 127.081747,29.2734891 L126.918172,29.2734891 C126.507547,29.2734891 126.220026,29.150386 126.096079,29.0272829 C125.768085,28.6992891 125.768085,28.2060337 125.768085,26.7271104 L125.768085,2.73634522 C125.768085,2.11914351 125.808558,1.62673122 125.808558,1.29789424 C125.931661,0.312226492 126.835541,0.394857321 127.616318,0.394857321 C131.436729,0.353541906 133.367592,0.353541906 133.44938,0.353541906 C134.928303,0.353541906 136.202336,0.846797368 137.228476,1.91425278 C139.24197,3.96821911 139.735225,5.32403925 139.735225,7.17311486 L139.735225,7.17311486 Z" id="Fill-17" fill="#FEFEFE"></path>
                    <path d="M42.9672725,49.914333 C42.4360743,49.914333 41.4192092,50.0694766 41.197455,49.3831348 C41.1755326,49.295445 41.1536101,49.1849895 41.0878427,49.0298459 L40.9765441,48.7204019 C39.8492234,45.2035326 39.2961028,43.5230913 39.3399477,43.6335468 L39.0743486,42.9042033 C38.9419707,42.637761 38.6544491,42.7043716 38.5439936,42.9699707 C38.477383,43.1470367 38.4546174,43.4564807 38.4546174,43.9210684 L38.4546174,48.7204019 C38.4546174,49.914333 38.4335381,49.914333 37.1940757,49.914333 L36.420044,49.914333 C35.7353886,49.8266432 35.8230784,49.2726793 35.8230784,48.5652583 L35.8230784,35.6276312 C35.8230784,34.9412894 35.7792335,34.4109344 36.2876661,34.389012 L38.38885,34.389012 C38.6544491,34.389012 38.8534376,34.5441556 38.9419707,34.8535996 C38.9858156,35.0079 39.0743486,35.2954216 39.2075698,35.6933986 C39.3180253,36.0475308 39.4057151,36.3350523 39.4504032,36.5340408 C39.8045353,37.7060495 40.6232551,40.4261215 40.8433229,41.2220757 C40.888011,41.3552968 40.9326991,41.4657523 40.9765441,41.5542853 C41.0878427,41.8190412 41.4192092,41.7760395 41.4630541,41.5095972 C41.5954321,41.0896977 41.5743528,41.0239303 41.5743528,40.2937436 C41.5954321,36.9986285 41.5954321,35.4058771 41.5954321,35.4944101 C41.5954321,34.4109344 41.6401202,34.3670895 42.7235959,34.3670895 C43.0996505,34.3670895 43.4537826,34.3670895 43.7851491,34.4109344 C44.2497367,34.4328569 44.2058918,34.9859775 44.2058918,35.4944101 L44.2058918,48.6984794 C44.2058918,49.8696449 44.1392812,49.914333 42.9672725,49.914333" id="Fill-19" fill="#FEFEFE"></path>
                    <path d="M52.9683853,49.4277386 C52.9236972,49.9589368 52.3924991,49.9142487 51.9287546,49.9142487 L47.1294211,49.9142487 C46.8199771,49.9142487 46.4439225,49.9142487 46.244934,49.7371826 C46.0459454,49.5601166 46.0678679,49.272595 46.0678679,48.4547184 L46.0678679,35.5828588 C46.0678679,34.4774607 46.0906335,34.4327726 47.1741092,34.4327726 L51.9506771,34.4327726 C52.4591096,34.4327726 52.7466312,34.4993831 52.8570867,34.587073 C53.0560752,34.7869047 53.0341527,35.8923028 52.9903078,36.4015786 C52.9464629,36.9327726 52.4818753,36.8880886 51.8402216,36.8880886 L49.6505046,36.8880886 C48.921161,36.9100111 48.7221725,37.1309221 48.6774844,37.8164207 C48.6555619,38.5685299 48.6555619,39.2978735 48.70025,40.0061377 C48.70025,40.2936593 48.7879399,40.5154134 48.8992386,40.6477914 C49.1639945,40.8906249 49.6505046,40.8695456 50.3368464,40.8695456 C50.6901353,40.8695456 50.9557344,40.8695456 51.110878,40.8906249 C51.641233,40.8906249 51.773611,41.0457684 51.7955335,41.5761235 C51.8182991,42.0407111 51.8182991,42.5052987 51.773611,42.9698863 C51.773611,43.2793304 51.5965449,43.434474 51.2871009,43.4563964 C50.9557344,43.4783189 50.4473019,43.4783189 49.8056482,43.4783189 C48.965006,43.4783189 48.744095,43.5887744 48.70025,44.5398721 C48.6555619,45.0710703 48.6555619,45.6680359 48.6774844,46.3535345 C48.7221725,47.0609556 48.921161,47.2827097 49.6505046,47.3046322 L51.8182991,47.3046322 C52.4818753,47.3265547 52.9236972,47.2607873 52.9903078,47.7692198 C53.0341527,48.3442629 53.0341527,48.8965404 52.9683853,49.4277386" id="Fill-21" fill="#FEFEFE"></path>
                    <path d="M62.1371191,36.4235853 C62.1371191,36.6225739 62.0932741,36.755795 62.0266636,36.8434849 C61.8495975,36.9986285 61.5401535,36.9986285 61.1421764,36.9986285 C60.7003544,36.9986285 60.2357668,36.9758628 59.9701677,37.2423051 C59.7045686,37.4851386 59.7273343,37.8611931 59.7273343,38.7237578 L59.7273343,48.5652583 C59.7273343,49.3620555 59.7931016,49.8696449 59.2627466,49.914333 C58.6868603,49.9362555 58.1345829,49.9362555 57.6033847,49.914333 C57.0283415,49.8924106 57.1168746,49.3620555 57.1168746,48.6984794 L57.1168746,38.5028468 C57.1168746,37.7498945 57.1168746,37.4623729 56.9187292,37.2423051 C56.6969751,36.9986285 56.2543099,36.9986285 55.8124879,36.9986285 C55.5688113,36.9986285 55.3917452,36.9986285 55.3040554,36.9758628 C54.8613902,36.9539404 54.7062466,36.8434849 54.6843241,36.4016629 C54.6624017,35.9370753 54.6624017,35.4277995 54.6843241,34.919367 C54.6843241,34.7423009 54.7500915,34.609923 54.8167021,34.5441556 C54.9937682,34.389012 55.2593673,34.4328569 55.7677998,34.4328569 L61.0755658,34.4328569 C62.1160398,34.4328569 62.1590415,34.4328569 62.1590415,35.4724876 C62.1590415,35.9143096 62.1590415,36.2465193 62.1371191,36.4235853" id="Fill-23" fill="#FEFEFE"></path>
                    <path d="M73.6631923,48.9855794 C73.6631923,49.0302675 73.6631923,49.0732692 73.6412698,49.1179573 L73.6412698,49.2503353 C73.5518936,49.7815335 73.4195157,49.9147546 72.9102399,49.9366771 C72.4464955,49.9366771 71.9372198,49.9366771 71.4296304,49.9147546 C71.0974207,49.891989 70.9422771,49.7376885 70.8984322,49.4274013 C70.8537441,48.9855794 70.7652111,48.3666913 70.6328331,47.6145821 C70.4785327,46.7292518 70.367234,46.1550519 70.3233891,45.8009197 C70.2567785,45.291644 70.1682455,44.893667 70.0797124,44.6069886 C69.9920226,44.451845 69.7921909,44.4299225 69.6598129,44.5842229 C69.5712799,44.672756 69.5046693,44.9164326 69.4380587,45.2477991 C69.1952253,47.0614615 69.0181592,48.2773151 68.9304694,48.8532014 C68.7753258,49.891989 68.7087152,49.9366771 67.647162,49.9366771 C67.0055083,49.9366771 66.2753216,50.069055 66.1648661,49.4054789 L65.8554221,47.7031152 C65.7011216,46.8843954 64.1083702,37.1752729 63.8208487,35.4729092 C63.6437826,34.5218115 63.8208487,34.3885904 64.7053358,34.411356 L65.059468,34.411356 L65.059468,34.4324353 C66.1210212,34.4324353 66.3646978,34.3000573 66.4523877,34.9189454 L66.8292854,37.1533505 C66.8731303,37.484717 67.0501964,38.7014138 67.1387294,39.2098463 C67.1825744,39.453523 67.2711074,39.5867441 67.426251,39.6297458 C67.558629,39.6744339 67.7576175,39.4754454 67.77954,39.2098463 C67.868073,38.7233362 68.0232166,37.5294051 68.045139,37.3076509 C68.2222051,36.1364854 68.3326606,35.3396881 68.4211936,34.8970229 C68.4658817,34.6095014 68.6421046,34.4324353 68.9515487,34.4324353 C69.395057,34.411356 69.9473345,34.411356 70.5889882,34.4324353 C71.2525643,34.4552009 71.3621766,35.8928087 71.3621766,36.0032642 C71.4515528,36.5336193 71.6724638,38.1044482 71.7829193,38.7680243 C71.7829193,38.8784798 71.8267643,39.0555459 71.9161405,39.2764569 C72.026596,39.6297458 72.4237298,39.5867441 72.4903404,39.232612 C72.645484,38.3253592 72.7331739,37.7064711 72.9102399,36.3565532 C72.9776937,35.8700431 73.0434611,35.4948317 73.1100716,35.1853877 C73.2205271,34.4990459 73.3090602,34.4324353 74.0164812,34.411356 C74.5029913,34.411356 74.9456565,34.411356 75.3436335,34.4324353 C75.7635331,34.4324353 75.895911,34.632267 75.8529093,35.0530097 C75.8529093,35.1853877 75.7635331,35.692977 75.6311551,36.601073 C75.1893331,39.453523 74.0830918,46.2208193 73.6631923,48.9855794" id="Fill-25" fill="#FEFEFE"></path>
                    <g id="Group-29" transform="translate(76.728627, 34.051996)">
                        <mask id="mask-2" fill="white">
                            <use xlink:href="#path-1"></use>
                        </mask>
                        <g id="Clip-28"></g>
                        <path d="M5.52437686,11.7485863 L5.52437686,4.27386886 C5.52437686,3.96442484 5.48053193,3.72074821 5.41392136,3.49983722 C5.05978923,2.41551837 3.42403608,2.54873951 3.26889248,3.67606011 C3.24697001,3.80928124 3.24697001,4.03019223 3.24697001,4.38432436 L3.24697001,11.5934427 C3.24697001,12.0361078 3.26889248,12.3674743 3.35742551,12.5445404 C3.71155764,13.4517931 4.99402184,13.4737156 5.3919989,12.5892285 C5.48053193,12.3902399 5.52437686,12.1027184 5.52437686,11.7485863 M8.06822597,13.4079482 C8.04546033,13.6060936 7.95777047,13.7831596 7.84731497,13.9821482 C6.10026315,16.7907532 2.42825027,16.6145303 1.01256493,13.9602257 C0.747809007,13.4737156 0.636510339,12.8986725 0.636510339,12.1904082 L0.636510339,3.8969711 C0.592665409,2.59258444 1.21239663,1.48634313 2.49486083,0.558011051 C2.76045993,0.359022523 3.00329339,0.247723854 3.29081494,0.204722096 C5.03786677,-0.0617201706 6.14326491,0.181956459 7.07244015,1.0664436 C8.0016154,1.92900828 8.28913696,3.19039319 8.28913696,4.36155872 L8.3119026,11.6828189 C8.3119026,11.9256523 8.24529203,12.5006954 8.06822597,13.4079482" id="Fill-27" fill="#FEFEFE" mask="url(#mask-2)"></path>
                    </g>
                    <path d="M91.7806762,38.3256964 C91.7368313,37.6174322 91.4493097,37.3079882 90.719123,37.1309221 C90.5648226,37.1089996 90.4762895,37.0870772 90.3877565,37.0651547 C89.1491372,36.9100111 89.3928139,37.5069767 89.3928139,39.3425616 C89.3928139,40.3155817 89.4138932,40.935313 89.4138932,40.9791579 C89.4138932,41.3552125 89.5909592,41.5761235 89.967857,41.686579 C90.7857336,41.8864107 91.5597652,41.3999006 91.7368313,40.5811808 C91.7595969,40.4488029 91.7806762,40.3602698 91.7806762,40.3155817 L91.7806762,38.3256964 Z M94.7005799,49.4496611 C94.745268,49.6714152 94.6112037,49.8695606 94.3683702,49.8923262 C93.7714047,49.9589368 93.1078285,49.9589368 92.378485,49.9142487 C91.8919749,49.8476381 91.8253643,49.3400488 91.6929863,48.7203175 C91.6255326,48.388951 91.4712322,47.7911423 91.2503212,46.9285776 L90.8304217,45.1368377 C90.7418886,44.7169382 90.6314331,44.141895 89.9897794,44.2304281 C89.3481258,44.3189611 89.3928139,44.9159267 89.3708914,45.6014253 L89.3708914,48.7203175 C89.3708914,49.3830505 89.4585813,49.8923262 88.8396932,49.9142487 C88.3304175,49.9370143 87.8000625,49.9370143 87.2688643,49.9142487 C86.6718987,49.8923262 86.7604317,49.3619712 86.7604317,48.6317845 L86.7604317,35.5609363 C86.7604317,35.0078157 86.8051198,34.6764492 86.9147321,34.5659937 C87.1145638,34.3670052 87.7562175,34.4108501 89.0386817,34.4108501 L90.2106904,34.4108501 C90.7638111,34.3889276 91.4054648,34.4774607 92.1128859,34.6764492 C93.3076602,34.9639708 94.1913042,36.0027583 94.2359923,37.2422208 C94.2579147,37.8391864 94.2579147,39.143573 94.2359923,41.1789896 C94.2359923,41.686579 94.0142381,42.2177772 93.5943386,42.7489753 C93.2848946,43.1241868 93.218284,43.5887744 93.350662,44.141895 C93.5504937,44.8493161 93.9484707,46.3535345 94.5454363,48.6983951 C94.6339693,48.9859166 94.6786574,49.2506726 94.7005799,49.4496611 L94.7005799,49.4496611 Z" id="Fill-30" fill="#FEFEFE"></path>
                    <path d="M104.192754,49.8698979 C103.838622,49.914586 103.750089,49.914586 103.064591,49.914586 L102.445702,49.914586 C101.848737,49.9584309 101.427994,49.6928318 101.207083,49.0739438 C101.185161,48.9854107 101.030017,48.5655112 100.720573,47.7695571 C100.189375,46.4196392 99.8799309,45.623685 99.7913979,45.4255397 C99.6581767,45.09333 99.5257988,44.8715759 99.4153433,44.7391979 C99.3048878,44.6068199 99.0612111,44.6068199 98.9507556,44.7391979 C98.7736896,44.9601089 98.6859997,45.2484736 98.6859997,45.6456075 C98.6859997,45.6017626 98.6859997,46.3319493 98.6632341,47.813402 L98.6632341,49.2948548 C98.6193892,49.7375199 98.486168,49.8698979 98.0662685,49.914586 C97.6455258,49.914586 97.2037038,49.914586 96.7838043,49.8918203 C96.4077497,49.8918203 96.2745286,49.7375199 96.2526061,49.3395429 C96.2306836,49.2071649 96.2306836,48.9407226 96.2306836,48.5435887 L96.2306836,35.6717291 C96.2306836,34.9862305 96.1868387,34.4769548 96.7171937,34.4550323 C97.2037038,34.4322667 97.6902139,34.4322667 98.1994896,34.4550323 C98.707079,34.4769548 98.6632341,34.9634649 98.6632341,35.494663 L98.6632341,36.3791502 C98.6632341,37.0646488 98.6413116,37.4626259 98.7736896,37.9272135 C98.8183777,38.126202 99.0831336,38.1928126 99.2601997,38.0595915 C99.3706552,37.9719016 99.5257988,37.7501474 99.6800992,37.4179378 C99.8133203,37.1751043 99.9903864,36.8209722 100.211297,36.3791502 C100.476896,35.8926401 100.631197,35.538508 100.742496,35.317597 C101.008095,34.8530094 101.11855,34.4769548 101.516527,34.4550323 C102.334404,34.3892649 103.064591,34.3892649 103.683479,34.4550323 C103.838622,34.4769548 103.927155,34.6320984 103.860545,34.7863988 C103.793934,34.9634649 103.683479,35.185219 103.573866,35.40613 C103.285502,36.0030956 102.556158,37.4407034 101.427994,39.697031 C101.207083,40.1169305 101.11855,40.2939965 101.140473,40.227386 C100.963407,40.5806749 100.963407,40.9128846 101.11855,41.2450942 C101.272851,41.5983832 101.471839,42.0410484 101.693593,42.594169 C102.488704,44.5621318 103.33019,46.6633158 104.236599,48.8749552 C104.325132,49.0739438 104.3909,49.2729323 104.435588,49.4719208 C104.480276,49.6489869 104.368977,49.8260529 104.192754,49.8698979" id="Fill-32" fill="#FEFEFE"></path>
                </g>
            </g>
        </g>
    </g>
</svg>