<?xml version="1.0" encoding="UTF-8"?>
<svg width="199px" height="190px" viewBox="0 0 199 190" version="1.1" xmlns="http://www.w3.org/2000/svg" xmlns:xlink="http://www.w3.org/1999/xlink">
    <!-- Generator: Sketch 53.2 (72643) - https://sketchapp.com -->
    <title>ACNW_Logo_DIAP</title>
    <desc>Created with Sketch.</desc>
    <g id="Symbols" stroke="none" stroke-width="1" fill="none" fill-rule="evenodd">
        <g id="logo-ACNW" transform="translate(0.000000, -1.000000)" fill-rule="nonzero">
            <g id="ACNW_Logo_DIAP">
                <polygon id="Path" fill="#FFFFFF" points="175.882635 67.6838323 173.499401 67.6838323 173.499401 46.4730539 99.3808383 3.69401198 25.2622754 46.4730539 25.2622754 67.6838323 22.8790419 67.6838323 22.8790419 45.0431138 99.3808383 0.953293413 175.882635 45.0431138"></polygon>
                <polygon id="Path" fill="#FFFFFF" points="99.3808383 190.658683 98.7850299 190.301198 22.8790419 146.449701 22.8790419 123.808982 25.2622754 123.808982 25.2622754 145.138922 99.3808383 187.917964 173.499401 145.138922 173.499401 123.808982 175.882635 123.808982 175.882635 146.449701"></polygon>
                <g id="Group" transform="translate(0.000000, 75.071856)" fill="#FFFFFF">
                    <g>
                        <path d="M22.5215569,41.4682635 C22.0449102,41.9449102 17.8742515,41.8257485 17.3976048,41.8257485 C16.8017964,41.8257485 16.4443114,41.7065868 16.205988,41.4682635 C15.7293413,40.9916168 15.6101796,40.157485 15.3718563,38.2508982 C15.2526946,37.4167665 15.2526946,36.7017964 15.1335329,36.2251497 C15.1335329,35.6293413 15.0143713,32.8886228 12.8694611,32.7694611 C12.6311377,32.7694611 12.3928144,32.7694611 12.3928144,32.7694611 C9.41377246,32.7694611 8.93712575,32.8886228 8.57964072,35.8676647 C8.57964072,36.3443114 8.22215569,37.8934132 7.74550898,40.5149701 C7.62634731,41.3491018 7.1497006,41.8257485 6.31556886,41.8257485 C4.52814371,41.8257485 2.97904192,41.8257485 1.78742515,41.8257485 C0.119161677,41.8257485 0.595808383,40.5149701 0.834131737,38.8467066 C2.26407186,30.9820359 6.31556886,6.67305389 6.91137725,3.45568862 C7.26886228,1.5491018 7.74550898,1.19161677 9.53293413,1.19161677 L14.7760479,1.19161677 C15.3718563,1.19161677 15.848503,1.31077844 16.0868263,1.5491018 C16.4443114,1.90658683 16.6826347,2.97904192 16.9209581,3.93233533 C18.5892216,13.5844311 22.6407186,37.8934132 22.7598802,38.3700599 C22.9982036,40.0383234 22.9982036,41.1107784 22.5215569,41.4682635 Z M13.5844311,24.6664671 C13.4652695,23.594012 12.8694611,20.4958084 12.8694611,20.3766467 C12.8694611,20.1383234 12.7502994,19.9 12.511976,19.542515 C12.154491,18.9467066 11.5586826,19.1850299 11.3203593,19.542515 C10.9628743,20.6149701 10.6053892,22.4023952 10.3670659,24.9047904 C10.3670659,25.1431138 10.3670659,25.5005988 10.3670659,25.6197605 C10.3670659,26.4538922 13.5844311,26.4538922 13.7035928,25.6197605 C13.5844311,25.5005988 13.5844311,25.1431138 13.5844311,24.6664671 Z" id="Shape"></path>
                        <path d="M31.1011976,41.8257485 C30.0287425,41.8257485 29.1946108,41.8257485 28.5988024,41.8257485 C27.0497006,41.7065868 27.1688623,40.2766467 27.1688623,38.6083832 L27.1688623,4.05149701 C27.1688623,2.62155689 27.288024,1.78742515 27.5263473,1.5491018 C28.1221557,0.953293413 31.5778443,1.07245509 32.6502994,1.19161677 C34.1994012,1.31077844 33.9610778,2.62155689 33.9610778,4.64730539 L33.9610778,38.9658683 C33.9610778,41.8257485 33.8419162,41.8257485 31.1011976,41.8257485 Z" id="Path"></path>
                        <path d="M59.2233533,40.6341317 C59.342515,41.2299401 58.9850299,41.7065868 58.3892216,41.8257485 C56.8401198,41.9449102 55.0526946,41.9449102 53.1461078,41.8257485 C51.8353293,41.7065868 51.7161677,40.2766467 51.3586826,38.7275449 C51.239521,37.8934132 50.7628743,36.3443114 50.1670659,34.0802395 L49.0946108,29.4329341 C48.8562874,28.360479 48.6179641,26.8113772 46.8305389,27.0497006 C45.1622754,27.288024 45.2814371,28.8371257 45.1622754,30.6245509 L45.1622754,38.8467066 C45.1622754,40.6341317 45.4005988,41.9449102 43.7323353,41.9449102 C42.4215569,41.9449102 40.9916168,41.9449102 39.5616766,41.9449102 C38.0125749,41.9449102 38.2508982,40.5149701 38.2508982,38.6083832 L38.2508982,4.17065868 C38.2508982,2.74071856 38.3700599,1.90658683 38.6083832,1.5491018 C39.0850299,1.07245509 40.8724551,1.19161677 44.208982,1.19161677 L47.3071856,1.19161677 C48.7371257,1.19161677 50.4053892,1.31077844 52.311976,1.90658683 C55.4101796,2.62155689 57.7934132,5.36227545 57.9125749,8.6988024 C57.9125749,10.2479042 57.9125749,13.7035928 57.9125749,19.0658683 C57.9125749,20.3766467 57.3167665,21.8065868 56.2443114,23.2365269 C55.4101796,24.1898204 55.291018,25.5005988 55.648503,26.9305389 C56.1251497,28.8371257 57.1976048,32.7694611 58.7467066,38.8467066 C58.9850299,39.442515 59.1041916,40.157485 59.2233533,40.6341317 Z M51.4778443,11.439521 C51.3586826,9.53293413 50.6437126,8.81796407 48.7371257,8.34131737 C48.3796407,8.34131737 48.1413174,8.22215569 47.902994,8.22215569 C44.6856287,7.86467066 45.2814371,9.41377246 45.2814371,14.1802395 C45.2814371,16.6826347 45.2814371,18.3508982 45.2814371,18.4700599 C45.2814371,19.4233533 45.7580838,20.0191617 46.7113772,20.3766467 C48.8562874,20.8532934 50.8820359,19.6616766 51.3586826,17.5167665 C51.3586826,17.1592814 51.4778443,16.9209581 51.4778443,16.8017964 L51.4778443,11.439521 Z" id="Shape"></path>
                        <path d="M81.7449102,34.4377246 C80.1958084,42.5407186 69.4712575,45.7580838 63.5131737,37.6550898 C62.6790419,36.5826347 62.3215569,35.0335329 62.3215569,33.1269461 L62.3215569,10.1287425 C62.2023952,6.55389222 64.5856287,2.74071856 68.3988024,1.31077844 C69.1137725,1.07245509 69.8287425,0.953293413 70.4245509,0.953293413 C72.0928144,0.953293413 73.2844311,0.953293413 74.1185629,0.953293413 C74.5952096,0.953293413 75.191018,1.07245509 75.6676647,1.19161677 C77.0976048,1.66826347 78.7658683,3.09820359 80.6724551,5.36227545 C82.4598802,7.50718563 82.1023952,12.0353293 82.1023952,13.7035928 C82.1023952,15.1335329 81.6257485,15.491018 80.1958084,15.491018 C79.0041916,15.491018 77.8125749,15.491018 76.6209581,15.491018 C74.9526946,15.3718563 75.3101796,15.1335329 75.191018,11.439521 C75.0718563,9.1754491 73.6419162,7.74550898 71.9736527,7.74550898 C71.139521,7.74550898 70.4245509,8.10299401 69.8287425,8.6988024 C68.6371257,10.0095808 68.7562874,11.3203593 68.7562874,12.7502994 C68.7562874,19.542515 68.7562874,25.0239521 68.7562874,29.5520958 C68.7562874,30.3862275 68.7562874,31.1011976 68.8754491,31.8161677 C68.9946108,33.2461078 69.9479042,34.9143713 71.7353293,35.0335329 C73.5227545,35.1526946 75.0718563,33.4844311 75.0718563,31.339521 L75.0718563,28.1221557 C75.191018,26.8113772 75.4293413,26.4538922 76.7401198,26.4538922 C77.9317365,26.4538922 79.242515,26.4538922 80.6724551,26.4538922 C81.5065868,26.4538922 81.9832335,26.9305389 81.9832335,27.7646707 C81.9832335,31.2203593 81.9832335,33.3652695 81.7449102,34.4377246 Z" id="Path"></path>
                        <path d="M105.577246,35.391018 C105.577246,35.8676647 105.338922,36.3443114 104.981437,36.9401198 C100.453293,44.3281437 90.8011976,43.851497 86.988024,36.9401198 C86.2730539,35.6293413 86.0347305,34.1994012 86.0347305,32.2928144 L86.0347305,10.4862275 C85.9155689,7.03053892 87.5838323,4.17065868 90.9203593,1.66826347 C91.6353293,1.19161677 92.2311377,0.834131737 93.0652695,0.71497006 C97.5934132,-3.33066907e-16 100.572455,0.71497006 102.955689,2.97904192 C105.338922,5.24311377 106.173054,8.57964072 106.173054,11.6778443 L106.173054,30.8628743 C106.173054,31.5778443 106.053892,33.0077844 105.577246,35.391018 Z M98.9041916,31.1011976 L98.9041916,11.439521 C98.9041916,10.6053892 98.7850299,10.0095808 98.6658683,9.41377246 C97.7125749,6.55389222 93.4227545,6.91137725 93.0652695,9.89041916 C93.0652695,10.2479042 93.0652695,10.8437126 93.0652695,11.797006 L93.0652695,30.7437126 C93.0652695,31.9353293 93.0652695,32.7694611 93.3035928,33.2461078 C94.2568862,35.6293413 97.5934132,35.6293413 98.6658683,33.3652695 C98.7850299,32.7694611 98.9041916,31.9353293 98.9041916,31.1011976 Z" id="Shape"></path>
                        <path d="M129.647904,35.391018 C129.647904,35.8676647 129.409581,36.3443114 129.052096,36.9401198 C124.523952,44.3281437 114.871856,43.851497 111.058683,36.9401198 C110.343713,35.6293413 110.105389,34.1994012 110.105389,32.2928144 L110.105389,10.4862275 C109.986228,7.03053892 111.654491,4.17065868 114.991018,1.66826347 C115.705988,1.19161677 116.301796,0.834131737 117.135928,0.71497006 C121.664072,-3.33066907e-16 124.643114,0.71497006 127.026347,2.97904192 C129.409581,5.24311377 130.243713,8.57964072 130.243713,11.6778443 L130.243713,30.8628743 C130.362874,31.5778443 130.124551,33.0077844 129.647904,35.391018 Z M122.97485,31.1011976 L122.97485,11.439521 C122.97485,10.6053892 122.855689,10.0095808 122.736527,9.41377246 C121.783234,6.55389222 117.493413,6.91137725 117.135928,9.89041916 C117.135928,10.2479042 117.135928,10.8437126 117.135928,11.797006 L117.135928,30.7437126 C117.135928,31.9353293 117.135928,32.7694611 117.374251,33.2461078 C118.327545,35.6293413 121.664072,35.6293413 122.736527,33.3652695 C122.855689,32.7694611 122.97485,31.9353293 122.97485,31.1011976 Z" id="Shape"></path>
                        <path d="M152.050299,40.5149701 C152.050299,42.0640719 150.620359,41.8257485 149.428743,41.8257485 L137.512575,41.8257485 C134.891018,41.8257485 134.771856,41.7065868 134.771856,39.0850299 L134.771856,4.05149701 C134.771856,1.19161677 134.771856,1.07245509 137.631737,1.07245509 C138.823353,1.07245509 139.657485,1.07245509 140.134132,1.07245509 C141.802395,1.19161677 141.564072,2.50239521 141.564072,4.64730539 L141.564072,30.5053892 C141.564072,31.697006 141.564072,32.411976 141.564072,32.7694611 C141.802395,35.2718563 142.517365,34.7952096 147.522156,34.9143713 C151.335329,34.9143713 151.931138,34.6760479 152.050299,36.3443114 C152.169461,37.7742515 152.169461,39.0850299 152.050299,40.5149701 Z" id="Path"></path>
                        <path d="M173.976048,40.6341317 C173.856886,42.0640719 172.426946,41.9449102 171.235329,41.9449102 L158.604192,41.9449102 C157.77006,41.9449102 156.816766,41.9449102 156.34012,41.4682635 C155.863473,40.9916168 155.863473,40.2766467 155.863473,38.1317365 L155.863473,4.28982036 C155.863473,1.42994012 155.863473,1.31077844 158.723353,1.31077844 L171.235329,1.31077844 C172.546108,1.31077844 173.38024,1.42994012 173.618563,1.66826347 C174.09521,2.14491018 174.09521,5.1239521 173.976048,6.43473054 C173.856886,7.86467066 172.665269,7.74550898 170.997006,7.74550898 L165.277246,7.74550898 C163.370659,7.74550898 162.894012,8.34131737 162.77485,10.1287425 C162.77485,12.154491 162.77485,14.0610778 162.77485,15.848503 C162.77485,16.5634731 163.013174,17.1592814 163.251497,17.5167665 C163.966467,18.1125749 165.277246,18.1125749 167.064671,18.1125749 C168.017964,18.1125749 168.732934,18.1125749 169.090419,18.1125749 C170.520359,18.1125749 170.877844,18.4700599 170.877844,19.9 C170.877844,21.0916168 170.877844,22.2832335 170.877844,23.594012 C170.877844,24.4281437 170.401198,24.7856287 169.567066,24.9047904 C168.732934,24.9047904 167.302994,24.9047904 165.634731,24.9047904 C163.370659,24.9047904 162.894012,25.1431138 162.77485,27.645509 C162.655689,29.0754491 162.655689,30.6245509 162.77485,32.411976 C162.894012,34.3185629 163.370659,34.7952096 165.277246,34.9143713 L170.997006,34.9143713 C172.784431,34.9143713 173.856886,34.7952096 174.09521,36.105988 C174.214371,37.7742515 174.214371,39.2041916 173.976048,40.6341317 Z" id="Path"></path>
                        <path d="M198.046707,10.6053892 L198.046707,31.9353293 C198.046707,34.0802395 197.57006,35.8676647 196.497605,37.4167665 C192.803593,42.8982036 190.658683,41.9449102 180.172455,41.9449102 L179.934132,41.9449102 C179.338323,41.9449102 178.980838,41.8257485 178.742515,41.5874251 C178.265868,41.1107784 178.265868,40.3958084 178.265868,38.3700599 L178.265868,4.40898204 C178.265868,3.5748503 178.265868,2.85988024 178.265868,2.38323353 C178.38503,0.953293413 179.695808,1.07245509 180.768263,1.07245509 C186.130539,1.07245509 188.871257,1.07245509 188.990419,1.07245509 C191.135329,1.07245509 192.922754,1.78742515 194.352695,3.33652695 C197.450898,6.07724551 198.046707,7.98383234 198.046707,10.6053892 Z M191.254491,12.511976 C191.254491,11.797006 191.254491,11.2011976 191.254491,10.9628743 C191.135329,9.05628743 190.062874,8.10299401 188.156287,7.98383234 C185.892216,7.86467066 185.296407,8.34131737 185.296407,10.4862275 L185.296407,31.8161677 C185.296407,33.2461078 185.296407,34.3185629 186.368862,34.7952096 C188.632934,35.6293413 191.254491,34.0802395 191.254491,31.8161677 L191.254491,12.511976 Z" id="Shape"></path>
                    </g>
                    <g transform="translate(51.047904, 48.856287)">
                        <path d="M9.96287425,22.4023952 C9.24790419,22.4023952 7.81796407,22.6407186 7.46047904,21.6874251 C7.46047904,21.5682635 7.34131737,21.4491018 7.34131737,21.2107784 L7.22215569,20.7341317 C5.67305389,15.7293413 4.83892216,13.3461078 4.95808383,13.5844311 L4.6005988,12.511976 C4.36227545,12.154491 4.00479042,12.2736527 3.88562874,12.6311377 C3.76646707,12.8694611 3.76646707,13.3461078 3.76646707,13.9419162 L3.76646707,20.7341317 C3.76646707,22.4023952 3.76646707,22.4023952 1.97904192,22.4023952 L0.906586826,22.4023952 C-0.0467065868,22.2832335 0.0724550898,21.4491018 0.0724550898,20.4958084 L0.0724550898,2.26407186 C0.0724550898,1.31077844 -0.0467065868,0.595808383 0.78742515,0.476646707 L3.76646707,0.476646707 C4.1239521,0.476646707 4.48143713,0.71497006 4.6005988,1.19161677 C4.71976048,1.42994012 4.83892216,1.78742515 4.95808383,2.38323353 C5.07724551,2.85988024 5.19640719,3.33652695 5.31556886,3.5748503 C5.79221557,5.24311377 6.98383234,9.05628743 7.34131737,10.2479042 C7.46047904,10.4862275 7.46047904,10.6053892 7.57964072,10.7245509 C7.6988024,11.0820359 8.1754491,11.0820359 8.29461078,10.6053892 C8.53293413,10.0095808 8.41377246,9.89041916 8.41377246,8.93712575 C8.41377246,4.28982036 8.41377246,2.0257485 8.41377246,2.14491018 C8.41377246,0.595808383 8.53293413,0.595808383 9.96287425,0.595808383 C10.439521,0.595808383 11.0353293,0.595808383 11.511976,0.71497006 C12.2269461,0.71497006 12.1077844,1.5491018 12.1077844,2.26407186 L12.1077844,20.9724551 C11.6311377,22.4023952 11.6311377,22.4023952 9.96287425,22.4023952 Z" id="Path"></path>
                        <path d="M24.0239521,21.6874251 C23.9047904,22.4023952 23.1898204,22.4023952 22.594012,22.4023952 L15.8017964,22.4023952 C15.3251497,22.4023952 14.848503,22.4023952 14.6101796,22.1640719 C14.3718563,21.9257485 14.3718563,21.4491018 14.3718563,20.3766467 L14.3718563,2.14491018 C14.3718563,0.595808383 14.3718563,0.476646707 15.9209581,0.476646707 L22.7131737,0.476646707 C23.4281437,0.476646707 23.7856287,0.595808383 24.0239521,0.71497006 C24.2622754,0.953293413 24.2622754,2.50239521 24.2622754,3.33652695 C24.1431138,4.05149701 23.5473054,4.05149701 22.594012,4.05149701 L19.4958084,4.05149701 C18.4233533,4.05149701 18.1850299,4.40898204 18.0658683,5.36227545 C18.0658683,6.43473054 18.0658683,7.50718563 18.0658683,8.46047904 C18.0658683,8.81796407 18.1850299,9.1754491 18.3041916,9.41377246 C18.6616766,9.77125749 19.3766467,9.77125749 20.3299401,9.77125749 C20.8065868,9.77125749 21.1640719,9.77125749 21.4023952,9.77125749 C22.1173653,9.77125749 22.3556886,10.0095808 22.3556886,10.7245509 C22.3556886,11.439521 22.3556886,12.0353293 22.3556886,12.7502994 C22.3556886,13.2269461 22.1173653,13.4652695 21.6407186,13.4652695 C21.1640719,13.4652695 20.4491018,13.4652695 19.4958084,13.4652695 C18.3041916,13.4652695 17.9467066,13.5844311 17.9467066,15.0143713 C17.8275449,15.7293413 17.8275449,16.5634731 17.9467066,17.6359281 C18.0658683,18.5892216 18.3041916,18.9467066 19.3766467,18.9467066 L22.4748503,18.9467066 C23.4281437,18.9467066 24.0239521,18.8275449 24.1431138,19.6616766 C24.1431138,20.257485 24.1431138,20.9724551 24.0239521,21.6874251 Z" id="Path"></path>
                        <path d="M37.0125749,3.33652695 C37.0125749,3.5748503 36.8934132,3.81317365 36.8934132,3.93233533 C36.6550898,4.17065868 36.1784431,4.17065868 35.7017964,4.17065868 C35.105988,4.17065868 34.391018,4.17065868 34.0335329,4.52814371 C33.6760479,4.88562874 33.6760479,5.36227545 33.6760479,6.67305389 L33.6760479,20.6149701 C33.6760479,21.6874251 33.7952096,22.4023952 32.9610778,22.5215569 C32.1269461,22.5215569 31.411976,22.5215569 30.5778443,22.5215569 C29.7437126,22.5215569 29.8628743,21.6874251 29.8628743,20.8532934 L29.8628743,6.43473054 C29.8628743,5.36227545 29.8628743,5.00479042 29.6245509,4.64730539 C29.2670659,4.28982036 28.6712575,4.28982036 28.0754491,4.28982036 C27.7179641,4.28982036 27.4796407,4.28982036 27.360479,4.28982036 C26.7646707,4.28982036 26.5263473,4.05149701 26.5263473,3.45568862 C26.5263473,2.74071856 26.5263473,2.0257485 26.5263473,1.31077844 C26.5263473,1.07245509 26.645509,0.834131737 26.7646707,0.834131737 C27.002994,0.595808383 27.360479,0.71497006 28.0754491,0.71497006 L35.5826347,0.71497006 C37.0125749,0.71497006 37.1317365,0.71497006 37.1317365,2.14491018 C37.0125749,2.62155689 37.0125749,3.09820359 37.0125749,3.33652695 Z" id="Path"></path>
                        <path d="M53.3377246,21.0916168 C53.3377246,21.2107784 53.3377246,21.2107784 53.3377246,21.3299401 L53.3377246,21.5682635 C53.2185629,22.2832335 52.9802395,22.5215569 52.2652695,22.5215569 C51.5502994,22.5215569 50.8353293,22.5215569 50.1203593,22.5215569 C49.6437126,22.5215569 49.4053892,22.2832335 49.4053892,21.8065868 C49.2862275,21.2107784 49.1670659,20.257485 49.0479042,19.1850299 C48.8095808,17.9934132 48.6904192,17.1592814 48.5712575,16.5634731 C48.4520958,15.848503 48.3329341,15.2526946 48.2137725,14.8952096 C48.0946108,14.6568862 47.8562874,14.6568862 47.6179641,14.8952096 C47.4988024,15.0143713 47.3796407,15.3718563 47.260479,15.848503 C46.902994,18.4700599 46.6646707,20.1383234 46.545509,20.9724551 C46.3071856,22.4023952 46.188024,22.5215569 44.7580838,22.5215569 C43.8047904,22.5215569 42.851497,22.7598802 42.6131737,21.8065868 L42.1365269,19.4233533 C41.8982036,18.2317365 39.6341317,4.52814371 39.2766467,2.14491018 C39.0383234,0.834131737 39.2766467,0.595808383 40.4682635,0.595808383 L40.9449102,0.595808383 L40.9449102,0.595808383 C42.494012,0.595808383 42.7323353,0.35748503 42.9706587,1.31077844 L43.4473054,4.40898204 C43.5664671,4.88562874 43.8047904,6.55389222 43.9239521,7.26886228 C44.0431138,7.62634731 44.1622754,7.74550898 44.2814371,7.86467066 C44.5197605,7.98383234 44.7580838,7.62634731 44.7580838,7.26886228 C44.8772455,6.55389222 45.1155689,4.88562874 45.1155689,4.52814371 C45.3538922,2.85988024 45.4730539,1.78742515 45.5922156,1.07245509 C45.7113772,0.71497006 45.9497006,0.35748503 46.3071856,0.35748503 C46.902994,0.35748503 47.7371257,0.35748503 48.5712575,0.35748503 C49.5245509,0.35748503 49.6437126,2.38323353 49.6437126,2.62155689 C49.7628743,3.33652695 50.1203593,5.6005988 50.239521,6.55389222 C50.239521,6.67305389 50.3586826,6.91137725 50.4778443,7.26886228 C50.597006,7.74550898 51.1928144,7.74550898 51.311976,7.1497006 C51.5502994,5.83892216 51.6694611,5.00479042 51.9077844,3.09820359 C52.0269461,2.38323353 52.1461078,1.90658683 52.1461078,1.42994012 C52.2652695,0.476646707 52.3844311,0.35748503 53.4568862,0.35748503 C54.1718563,0.35748503 54.7676647,0.35748503 55.3634731,0.35748503 C55.9592814,0.35748503 56.1976048,0.595808383 56.0784431,1.19161677 C56.0784431,1.42994012 55.9592814,2.14491018 55.7209581,3.33652695 C55.4826347,7.62634731 53.9335329,17.1592814 53.3377246,21.0916168 Z" id="Path"></path>
                        <path d="M69.0670659,18.9467066 C69.0670659,19.1850299 68.9479042,19.4233533 68.7095808,19.7808383 C66.2071856,23.7131737 61.0832335,23.4748503 59.057485,19.7808383 C58.7,19.0658683 58.5808383,18.2317365 58.5808383,17.2784431 L58.5808383,5.6005988 C58.4616766,3.81317365 59.4149701,2.14491018 61.2023952,0.834131737 C61.5598802,0.595808383 61.9173653,0.35748503 62.2748503,0.35748503 C64.7772455,-2.62012634e-14 66.3263473,0.35748503 67.6371257,1.5491018 C68.9479042,2.74071856 69.3053892,4.52814371 69.3053892,6.19640719 L69.3053892,16.5634731 C69.4245509,16.9209581 69.3053892,17.6359281 69.0670659,18.9467066 Z M65.4922156,16.5634731 L65.4922156,5.95808383 C65.4922156,5.48143713 65.3730539,5.1239521 65.3730539,4.88562874 C64.8964072,3.33652695 62.5131737,3.5748503 62.394012,5.1239521 C62.394012,5.36227545 62.394012,5.6005988 62.394012,6.07724551 L62.394012,16.3251497 C62.394012,16.9209581 62.394012,17.3976048 62.5131737,17.6359281 C62.9898204,18.9467066 64.7772455,18.9467066 65.3730539,17.7550898 C65.3730539,17.5167665 65.4922156,17.1592814 65.4922156,16.5634731 Z" id="Shape"></path>
                        <path d="M83.008982,21.8065868 C83.1281437,22.1640719 82.8898204,22.4023952 82.5323353,22.4023952 C81.6982036,22.5215569 80.7449102,22.5215569 79.6724551,22.4023952 C78.957485,22.2832335 78.8383234,21.5682635 78.7191617,20.7341317 C78.6,20.257485 78.3616766,19.4233533 78.1233533,18.2317365 L77.5275449,15.7293413 C77.4083832,15.1335329 77.2892216,14.2994012 76.3359281,14.4185629 C75.3826347,14.5377246 75.5017964,15.3718563 75.5017964,16.3251497 L75.5017964,20.7341317 C75.5017964,21.6874251 75.6209581,22.4023952 74.7868263,22.4023952 C74.0718563,22.4023952 73.3568862,22.4023952 72.5227545,22.4023952 C71.6886228,22.4023952 71.8077844,21.5682635 71.8077844,20.6149701 L71.8077844,2.14491018 C71.8077844,1.31077844 71.9269461,0.953293413 72.0461078,0.71497006 C72.2844311,0.476646707 73.2377246,0.476646707 75.0251497,0.476646707 L76.6934132,0.476646707 C77.5275449,0.476646707 78.3616766,0.595808383 79.4341317,0.834131737 C81.1023952,1.19161677 82.4131737,2.74071856 82.4131737,4.40898204 C82.4131737,5.24311377 82.4131737,7.1497006 82.4131737,10.0095808 C82.4131737,10.7245509 82.0556886,11.439521 81.4598802,12.2736527 C80.9832335,12.7502994 80.9832335,13.4652695 81.1023952,14.2994012 C81.3407186,15.2526946 81.9365269,17.3976048 82.7706587,20.7341317 C82.8898204,21.0916168 83.008982,21.4491018 83.008982,21.8065868 Z M78.957485,6.07724551 C78.8383234,5.1239521 78.4808383,4.64730539 77.4083832,4.40898204 C77.1700599,4.40898204 77.0508982,4.28982036 76.9317365,4.28982036 C75.1443114,4.05149701 75.5017964,4.88562874 75.5017964,7.50718563 C75.5017964,8.93712575 75.5017964,9.77125749 75.5017964,9.77125749 C75.5017964,10.2479042 75.7401198,10.6053892 76.3359281,10.7245509 C77.5275449,10.9628743 78.6,10.3670659 78.8383234,9.1754491 C78.8383234,8.93712575 78.957485,8.81796407 78.957485,8.81796407 L78.957485,6.07724551 L78.957485,6.07724551 Z" id="Shape"></path>
                        <path d="M96.4742515,22.4023952 C95.9976048,22.5215569 95.8784431,22.5215569 94.9251497,22.5215569 L94.091018,22.5215569 C93.2568862,22.6407186 92.6610778,22.1640719 92.3035928,21.3299401 C92.3035928,21.2107784 92.0652695,20.6149701 91.5886228,19.542515 C90.8736527,17.6359281 90.397006,16.5634731 90.2778443,16.205988 C90.039521,15.7293413 89.9203593,15.3718563 89.8011976,15.2526946 C89.6820359,15.1335329 89.3245509,15.0143713 89.0862275,15.2526946 C88.8479042,15.6101796 88.7287425,15.9676647 88.7287425,16.5634731 C88.7287425,16.4443114 88.7287425,17.5167665 88.7287425,19.6616766 L88.7287425,21.8065868 C88.6095808,22.4023952 88.4904192,22.6407186 87.8946108,22.6407186 C87.2988024,22.6407186 86.702994,22.6407186 86.1071856,22.6407186 C85.6305389,22.6407186 85.3922156,22.4023952 85.3922156,21.8065868 C85.3922156,21.5682635 85.3922156,21.2107784 85.3922156,20.7341317 L85.3922156,2.50239521 C85.3922156,1.5491018 85.2730539,0.834131737 86.1071856,0.834131737 C86.8221557,0.834131737 87.5371257,0.834131737 88.2520958,0.834131737 C88.9670659,0.834131737 88.9670659,1.5491018 88.9670659,2.26407186 L88.9670659,3.45568862 C88.9670659,4.40898204 88.9670659,5.00479042 89.0862275,5.6005988 C89.2053892,5.83892216 89.5628743,5.95808383 89.8011976,5.83892216 C89.9203593,5.71976048 90.1586826,5.36227545 90.397006,4.88562874 C90.6353293,4.52814371 90.8736527,4.05149701 91.111976,3.45568862 C91.4694611,2.74071856 91.7077844,2.26407186 91.8269461,1.90658683 C92.1844311,1.19161677 92.3035928,0.71497006 92.8994012,0.71497006 C94.091018,0.595808383 95.0443114,0.595808383 95.9976048,0.71497006 C96.2359281,0.71497006 96.3550898,0.953293413 96.2359281,1.19161677 C96.1167665,1.42994012 95.9976048,1.78742515 95.8784431,2.0257485 C95.5209581,2.85988024 94.448503,4.88562874 92.8994012,8.10299401 C92.5419162,8.6988024 92.4227545,8.93712575 92.5419162,8.81796407 C92.3035928,9.29461078 92.3035928,9.77125749 92.5419162,10.2479042 C92.7802395,10.7245509 93.0185629,11.3203593 93.3760479,12.154491 C94.448503,14.8952096 95.6401198,17.8742515 96.9508982,20.9724551 C97.0700599,21.2107784 97.1892216,21.5682635 97.1892216,21.8065868 C96.8317365,22.0449102 96.7125749,22.2832335 96.4742515,22.4023952 Z" id="Path"></path>
                    </g>
                </g>
                <g id="Group" transform="translate(57.197605, 45.281437)">
                    <path d="M52.0736527,12.7502994 C50.5245509,12.8694611 49.0946108,12.7502994 48.0221557,12.6311377 C48.0221557,12.511976 48.1413174,12.3928144 48.1413174,12.2736527 C48.1413174,12.154491 48.1413174,12.0353293 48.1413174,11.9161677 C49.3329341,11.5586826 50.6437126,10.9628743 52.1928144,10.2479042 C52.5502994,10.0095808 52.7886228,9.77125749 52.6694611,9.41377246 C52.5502994,8.93712575 52.4311377,8.46047904 52.311976,8.10299401 C52.0736527,7.74550898 51.8353293,7.26886228 51.597006,7.03053892 C51.4778443,6.91137725 51.4778443,6.91137725 51.3586826,6.91137725 C51.239521,6.91137725 51.1203593,6.91137725 50.8820359,7.03053892 C49.6904192,7.86467066 48.6179641,8.46047904 47.545509,8.93712575 C47.4263473,8.6988024 47.3071856,8.46047904 47.188024,8.22215569 C47.902994,7.26886228 48.7371257,6.31556886 49.4520958,5.1239521 C49.5712575,4.88562874 49.5712575,4.52814371 49.4520958,4.28982036 C49.2137725,3.93233533 48.8562874,3.5748503 48.3796407,3.21736527 C48.0221557,2.85988024 47.545509,2.50239521 47.0688623,2.26407186 C46.9497006,2.14491018 46.8305389,2.14491018 46.7113772,2.26407186 C46.5922156,2.26407186 46.4730539,2.38323353 46.4730539,2.62155689 C45.9964072,3.93233533 45.4005988,5.1239521 44.9239521,6.07724551 C44.6856287,5.95808383 44.4473054,5.83892216 44.208982,5.71976048 C44.208982,4.52814371 44.208982,3.09820359 43.9706587,1.42994012 C43.851497,1.07245509 43.6131737,0.71497006 43.3748503,0.595808383 C42.8982036,0.476646707 42.3023952,0.35748503 41.8257485,0.35748503 C41.3491018,0.35748503 40.8724551,0.476646707 40.3958084,0.595808383 C40.2766467,0.595808383 40.157485,0.71497006 40.157485,0.834131737 C40.157485,0.953293413 40.157485,1.07245509 40.157485,1.31077844 C40.7532934,2.74071856 40.9916168,4.05149701 41.1107784,5.24311377 C40.8724551,5.24311377 40.6341317,5.36227545 40.2766467,5.36227545 C39.6808383,4.28982036 38.8467066,3.33652695 37.7742515,2.14491018 C37.5359281,1.90658683 37.1784431,1.78742515 37.0592814,1.90658683 C36.7017964,2.14491018 36.2251497,2.38323353 35.8676647,2.62155689 C35.5101796,2.85988024 35.1526946,3.21736527 34.7952096,3.5748503 C34.6760479,3.69401198 34.6760479,3.81317365 34.6760479,3.81317365 C34.6760479,3.93233533 34.7952096,4.05149701 34.7952096,4.17065868 C35.748503,5.00479042 36.7017964,5.83892216 37.4167665,6.67305389 C37.1784431,6.79221557 37.0592814,7.03053892 36.8209581,7.26886228 C35.748503,6.79221557 34.4377246,6.43473054 33.0077844,6.19640719 C32.6502994,6.19640719 32.2928144,6.31556886 32.054491,6.55389222 C31.697006,7.03053892 31.339521,7.50718563 31.1011976,7.98383234 C30.8628743,8.46047904 30.7437126,9.05628743 30.6245509,9.53293413 C30.6245509,9.65209581 30.6245509,9.77125749 30.7437126,9.89041916 C30.8628743,10.0095808 30.9820359,10.0095808 31.2203593,10.0095808 C32.7694611,9.89041916 34.1994012,10.0095808 35.2718563,10.1287425 C35.2718563,10.2479042 35.1526946,10.3670659 35.1526946,10.4862275 C35.1526946,10.6053892 35.1526946,10.7245509 35.1526946,10.8437126 C33.9610778,11.2011976 32.6502994,11.797006 31.1011976,12.511976 C30.7437126,12.7502994 30.5053892,12.9886228 30.6245509,13.3461078 C30.7437126,13.8227545 30.8628743,14.2994012 30.9820359,14.6568862 C31.2203593,15.0143713 31.4586826,15.491018 31.697006,15.7293413 C31.8161677,15.848503 31.8161677,15.848503 31.9353293,15.848503 C32.054491,15.848503 32.1736527,15.848503 32.411976,15.7293413 C33.6035928,14.8952096 34.6760479,14.2994012 35.748503,13.8227545 C35.8676647,14.0610778 35.9868263,14.2994012 36.105988,14.5377246 C35.391018,15.491018 34.5568862,16.4443114 33.8419162,17.6359281 C33.7227545,17.8742515 33.7227545,18.2317365 33.8419162,18.4700599 C34.0802395,18.8275449 34.4377246,19.1850299 34.9143713,19.542515 C35.2718563,19.9 35.748503,20.257485 36.2251497,20.4958084 C36.3443114,20.6149701 36.4634731,20.6149701 36.5826347,20.4958084 C36.7017964,20.4958084 36.8209581,20.3766467 36.8209581,20.1383234 C37.2976048,18.8275449 37.8934132,17.6359281 38.3700599,16.6826347 C38.6083832,16.8017964 38.8467066,16.9209581 39.0850299,17.0401198 C39.0850299,18.2317365 39.0850299,19.6616766 39.3233533,21.3299401 C39.442515,21.6874251 39.6808383,22.0449102 39.9191617,22.1640719 C40.3958084,22.2832335 40.9916168,22.4023952 41.4682635,22.4023952 C41.9449102,22.4023952 42.4215569,22.2832335 42.8982036,22.1640719 C43.0173653,22.1640719 43.1365269,22.0449102 43.1365269,21.9257485 C43.1365269,21.8065868 43.1365269,21.6874251 43.1365269,21.4491018 C42.5407186,20.0191617 42.3023952,18.7083832 42.1832335,17.5167665 C42.4215569,17.5167665 42.6598802,17.3976048 43.0173653,17.3976048 C43.6131737,18.4700599 44.4473054,19.4233533 45.5197605,20.6149701 C45.7580838,20.8532934 46.1155689,20.9724551 46.2347305,20.8532934 C46.5922156,20.6149701 47.0688623,20.3766467 47.4263473,20.1383234 C47.7838323,19.9 48.1413174,19.542515 48.4988024,19.1850299 C48.6179641,19.0658683 48.6179641,18.9467066 48.6179641,18.9467066 C48.6179641,18.8275449 48.4988024,18.7083832 48.4988024,18.5892216 C47.545509,17.7550898 46.5922156,16.9209581 45.8772455,16.0868263 C46.1155689,15.9676647 46.2347305,15.7293413 46.4730539,15.491018 C47.545509,15.9676647 48.8562874,16.3251497 50.2862275,16.5634731 C50.6437126,16.5634731 51.0011976,16.4443114 51.239521,16.205988 C51.597006,15.7293413 51.954491,15.2526946 52.1928144,14.7760479 C52.4311377,14.2994012 52.5502994,13.7035928 52.6694611,13.2269461 C52.6694611,13.1077844 52.6694611,12.9886228 52.5502994,12.8694611 C52.4311377,12.7502994 52.311976,12.7502994 52.0736527,12.7502994 Z M40.9916168,14.5377246 C39.2041916,14.0610778 38.1317365,12.2736527 38.4892216,10.4862275 C38.9658683,8.6988024 40.7532934,7.62634731 42.5407186,8.10299401 C44.3281437,8.57964072 45.4005988,10.3670659 45.0431138,12.154491 C44.5664671,13.8227545 42.7790419,14.8952096 40.9916168,14.5377246 Z" id="Shape" fill="#15B7EB"></path>
                    <g transform="translate(0.000000, 7.149701)" fill="#FFFFFF" id="Path">
                        <path d="M4.40898204,1.19161677 L1.90658683,1.19161677 C1.90658683,1.19161677 1.90658683,1.19161677 1.90658683,1.19161677 L1.90658683,3.5748503 C1.90658683,3.5748503 1.90658683,3.5748503 1.90658683,3.5748503 L3.45568862,3.5748503 C3.5748503,3.5748503 3.5748503,3.5748503 3.5748503,3.69401198 L3.5748503,4.40898204 C3.5748503,4.52814371 3.5748503,4.52814371 3.45568862,4.52814371 L1.90658683,4.52814371 C1.90658683,4.52814371 1.90658683,4.52814371 1.90658683,4.52814371 L1.90658683,6.91137725 C1.90658683,6.91137725 1.90658683,6.91137725 1.90658683,6.91137725 L4.40898204,6.91137725 C4.52814371,6.91137725 4.52814371,6.91137725 4.52814371,7.03053892 L4.52814371,7.74550898 C4.52814371,7.86467066 4.52814371,7.86467066 4.40898204,7.86467066 L0.953293413,7.86467066 C0.834131737,7.86467066 0.834131737,7.86467066 0.834131737,7.74550898 L0.834131737,0.238323353 C0.834131737,0.119161677 0.834131737,0.119161677 0.953293413,0.119161677 L4.40898204,0.119161677 C4.52814371,0.119161677 4.52814371,0.119161677 4.52814371,0.238323353 L4.40898204,1.19161677 C4.52814371,1.07245509 4.40898204,1.19161677 4.40898204,1.19161677 Z"></path>
                        <path d="M7.98383234,7.50718563 C7.62634731,7.1497006 7.50718563,6.67305389 7.50718563,6.07724551 L7.50718563,5.83892216 C7.50718563,5.71976048 7.50718563,5.71976048 7.62634731,5.71976048 L8.46047904,5.71976048 C8.57964072,5.71976048 8.57964072,5.71976048 8.57964072,5.83892216 L8.57964072,5.95808383 C8.57964072,6.31556886 8.6988024,6.55389222 8.81796407,6.79221557 C8.93712575,7.03053892 9.1754491,7.1497006 9.41377246,7.1497006 C9.65209581,7.1497006 9.89041916,7.03053892 10.0095808,6.91137725 C10.1287425,6.67305389 10.2479042,6.43473054 10.2479042,6.19640719 C10.2479042,5.95808383 10.2479042,5.83892216 10.1287425,5.6005988 C10.0095808,5.48143713 9.89041916,5.24311377 9.77125749,5.1239521 C9.65209581,5.00479042 9.41377246,4.76646707 9.05628743,4.52814371 C8.6988024,4.28982036 8.34131737,4.05149701 8.22215569,3.81317365 C7.98383234,3.5748503 7.86467066,3.33652695 7.62634731,3.09820359 C7.50718563,2.85988024 7.38802395,2.50239521 7.38802395,2.14491018 C7.38802395,1.5491018 7.50718563,1.07245509 7.86467066,0.71497006 C8.22215569,0.35748503 8.6988024,0.238323353 9.29461078,0.238323353 C9.89041916,0.238323353 10.3670659,0.476646707 10.7245509,0.834131737 C11.0820359,1.19161677 11.2011976,1.66826347 11.2011976,2.26407186 L11.2011976,2.50239521 C11.2011976,2.62155689 11.2011976,2.62155689 11.0820359,2.62155689 L10.2479042,2.62155689 C10.1287425,2.62155689 10.1287425,2.62155689 10.1287425,2.50239521 L10.1287425,2.26407186 C10.1287425,1.90658683 10.0095808,1.66826347 9.89041916,1.42994012 C9.77125749,1.19161677 9.53293413,1.07245509 9.1754491,1.07245509 C8.93712575,1.07245509 8.6988024,1.19161677 8.57964072,1.31077844 C8.46047904,1.42994012 8.34131737,1.78742515 8.34131737,2.0257485 C8.34131737,2.26407186 8.46047904,2.62155689 8.57964072,2.74071856 C8.6988024,2.85988024 9.05628743,3.21736527 9.53293413,3.5748503 C10.0095808,3.93233533 10.2479042,4.17065868 10.4862275,4.40898204 C10.7245509,4.64730539 10.8437126,4.88562874 10.9628743,5.1239521 C11.0820359,5.36227545 11.2011976,5.71976048 11.2011976,5.95808383 C11.2011976,6.55389222 10.9628743,7.03053892 10.6053892,7.38802395 C10.2479042,7.74550898 9.77125749,7.98383234 9.1754491,7.98383234 C8.81796407,7.98383234 8.34131737,7.86467066 7.98383234,7.50718563 Z"></path>
                        <path d="M18.4700599,0.35748503 L18.4700599,1.07245509 C18.4700599,1.19161677 18.4700599,1.19161677 18.3508982,1.19161677 L16.9209581,1.19161677 C16.9209581,1.19161677 16.9209581,1.19161677 16.9209581,1.19161677 L16.9209581,7.86467066 C16.9209581,7.98383234 16.9209581,7.98383234 16.8017964,7.98383234 L15.9676647,7.98383234 C15.848503,7.98383234 15.848503,7.98383234 15.848503,7.86467066 L15.848503,1.19161677 C15.848503,1.19161677 15.848503,1.19161677 15.848503,1.19161677 L14.5377246,1.19161677 C14.4185629,1.19161677 14.4185629,1.19161677 14.4185629,1.07245509 L14.4185629,0.35748503 C14.4185629,0.238323353 14.4185629,0.238323353 14.5377246,0.238323353 L18.4700599,0.35748503 C18.3508982,0.238323353 18.4700599,0.238323353 18.4700599,0.35748503 Z"></path>
                        <path d="M20.8532934,7.74550898 C20.7341317,7.62634731 20.6149701,7.38802395 20.6149701,7.26886228 C20.6149701,7.1497006 20.7341317,6.91137725 20.8532934,6.79221557 C20.9724551,6.67305389 21.2107784,6.55389222 21.3299401,6.55389222 C21.5682635,6.55389222 21.6874251,6.67305389 21.8065868,6.79221557 C21.9257485,6.91137725 22.0449102,7.1497006 22.0449102,7.26886228 C22.0449102,7.38802395 21.9257485,7.62634731 21.8065868,7.74550898 C21.6874251,7.86467066 21.4491018,7.98383234 21.3299401,7.98383234 C21.2107784,7.98383234 20.9724551,7.86467066 20.8532934,7.74550898 Z"></path>
                    </g>
                    <g transform="translate(59.580838, 7.149701)" fill="#FFFFFF">
                        <path d="M2.26407186,7.03053892 C2.26407186,7.03053892 2.26407186,7.03053892 2.26407186,7.03053892 L4.76646707,7.03053892 C4.88562874,7.03053892 4.88562874,7.03053892 4.88562874,7.1497006 L4.88562874,7.86467066 C4.88562874,7.98383234 4.88562874,7.98383234 4.76646707,7.98383234 L1.07245509,7.98383234 C0.953293413,7.98383234 0.953293413,7.98383234 0.953293413,7.86467066 L0.953293413,7.1497006 C0.953293413,7.1497006 0.953293413,7.03053892 0.953293413,7.03053892 L1.31077844,6.55389222 C2.0257485,5.6005988 2.50239521,4.76646707 2.97904192,4.05149701 C3.45568862,3.33652695 3.69401198,2.62155689 3.69401198,2.14491018 C3.69401198,1.78742515 3.5748503,1.5491018 3.45568862,1.31077844 C3.33652695,1.07245509 3.09820359,1.07245509 2.85988024,1.07245509 C2.62155689,1.07245509 2.38323353,1.19161677 2.26407186,1.31077844 C2.14491018,1.5491018 2.0257485,1.78742515 2.0257485,2.0257485 L2.0257485,2.50239521 C2.0257485,2.62155689 2.0257485,2.62155689 1.90658683,2.62155689 L1.07245509,2.62155689 C0.953293413,2.62155689 0.953293413,2.62155689 0.953293413,2.50239521 L0.953293413,2.0257485 C0.953293413,1.42994012 1.19161677,0.953293413 1.5491018,0.595808383 C1.90658683,0.238323353 2.38323353,0.119161677 2.85988024,0.119161677 C3.45568862,0.119161677 3.81317365,0.35748503 4.17065868,0.71497006 C4.52814371,1.07245509 4.64730539,1.5491018 4.64730539,2.14491018 C4.64730539,2.50239521 4.52814371,2.85988024 4.40898204,3.21736527 C4.28982036,3.5748503 4.05149701,3.93233533 3.81317365,4.40898204 C3.5748503,4.64730539 3.21736527,5.24311377 2.62155689,6.19640719 L2.26407186,7.03053892 C2.26407186,7.03053892 2.26407186,7.03053892 2.26407186,7.03053892 Z" id="Path"></path>
                        <path d="M8.34131737,7.50718563 C7.98383234,7.1497006 7.74550898,6.67305389 7.74550898,5.95808383 L7.74550898,2.14491018 C7.74550898,1.5491018 7.98383234,1.07245509 8.34131737,0.595808383 C8.6988024,0.119161677 9.1754491,0 9.77125749,0 C10.3670659,0 10.8437126,0.238323353 11.2011976,0.595808383 C11.5586826,0.953293413 11.797006,1.42994012 11.797006,2.14491018 L11.797006,5.95808383 C11.797006,6.55389222 11.5586826,7.03053892 11.2011976,7.50718563 C10.8437126,7.86467066 10.3670659,8.10299401 9.77125749,8.10299401 C9.1754491,8.10299401 8.81796407,7.86467066 8.34131737,7.50718563 Z M10.4862275,6.79221557 C10.6053892,6.55389222 10.7245509,6.31556886 10.7245509,5.95808383 L10.7245509,2.0257485 C10.7245509,1.66826347 10.6053892,1.42994012 10.4862275,1.19161677 C10.3670659,0.953293413 10.1287425,0.953293413 9.77125749,0.953293413 C9.53293413,0.953293413 9.29461078,1.07245509 9.05628743,1.19161677 C8.93712575,1.42994012 8.81796407,1.66826347 8.81796407,2.0257485 L8.81796407,5.95808383 C8.81796407,6.31556886 8.93712575,6.55389222 9.05628743,6.79221557 C9.1754491,7.03053892 9.41377246,7.03053892 9.77125749,7.03053892 C10.1287425,7.1497006 10.3670659,7.03053892 10.4862275,6.79221557 Z" id="Shape"></path>
                        <path d="M15.9676647,0.238323353 L16.8017964,0.238323353 C16.9209581,0.238323353 16.9209581,0.238323353 16.9209581,0.35748503 L16.9209581,7.86467066 C16.9209581,7.98383234 16.9209581,7.98383234 16.8017964,7.98383234 L15.9676647,7.98383234 C15.848503,7.98383234 15.848503,7.98383234 15.848503,7.86467066 L15.848503,1.42994012 C15.848503,1.42994012 15.848503,1.42994012 15.848503,1.42994012 C15.848503,1.42994012 15.848503,1.42994012 15.848503,1.42994012 L14.8952096,1.66826347 L14.8952096,1.66826347 C14.8952096,1.66826347 14.7760479,1.66826347 14.7760479,1.5491018 L14.7760479,0.953293413 C14.7760479,0.834131737 14.7760479,0.834131737 14.8952096,0.834131737 L15.9676647,0.35748503 C15.848503,0.238323353 15.9676647,0.238323353 15.9676647,0.238323353 Z" id="Path"></path>
                        <path d="M23.951497,5.6005988 C23.951497,5.83892216 23.951497,6.19640719 23.951497,6.43473054 C23.951497,6.91137725 23.7131737,7.38802395 23.3556886,7.62634731 C22.9982036,7.86467066 22.6407186,8.10299401 22.0449102,8.10299401 C21.5682635,8.10299401 21.0916168,7.98383234 20.8532934,7.74550898 C20.4958084,7.50718563 20.3766467,7.03053892 20.257485,6.55389222 L20.257485,6.19640719 C20.257485,6.07724551 20.257485,6.07724551 20.3766467,6.07724551 L21.2107784,6.07724551 C21.3299401,6.07724551 21.3299401,6.07724551 21.3299401,6.19640719 L21.3299401,6.43473054 C21.4491018,6.91137725 21.6874251,7.26886228 22.1640719,7.26886228 C22.4023952,7.26886228 22.5215569,7.1497006 22.6407186,7.03053892 C22.7598802,6.91137725 22.8790419,6.67305389 22.8790419,6.43473054 C22.8790419,6.19640719 22.9982036,5.95808383 22.9982036,5.71976048 C22.9982036,5.36227545 22.9982036,5.1239521 22.8790419,4.88562874 C22.8790419,4.64730539 22.7598802,4.52814371 22.6407186,4.40898204 C22.5215569,4.28982036 22.4023952,4.28982036 22.1640719,4.28982036 C21.6874251,4.28982036 21.4491018,4.52814371 21.3299401,4.88562874 C21.3299401,5.00479042 21.2107784,5.00479042 21.2107784,5.00479042 L20.257485,5.00479042 C20.1383234,5.00479042 20.1383234,5.00479042 20.1383234,4.88562874 L20.1383234,0.595808383 C20.1383234,0.476646707 20.1383234,0.476646707 20.257485,0.476646707 L23.7131737,0.476646707 C23.8323353,0.476646707 23.8323353,0.476646707 23.8323353,0.595808383 L23.8323353,1.31077844 C23.8323353,1.42994012 23.8323353,1.42994012 23.7131737,1.42994012 L21.3299401,1.42994012 C21.3299401,1.42994012 21.3299401,1.42994012 21.3299401,1.42994012 L21.3299401,3.81317365 C21.3299401,3.81317365 21.3299401,3.81317365 21.3299401,3.81317365 C21.3299401,3.81317365 21.3299401,3.81317365 21.3299401,3.81317365 C21.4491018,3.69401198 21.5682635,3.5748503 21.8065868,3.45568862 C22.0449102,3.33652695 22.1640719,3.33652695 22.4023952,3.33652695 C22.8790419,3.33652695 23.1173653,3.45568862 23.4748503,3.69401198 C23.7131737,3.93233533 23.951497,4.28982036 23.951497,4.76646707 C23.951497,4.88562874 23.951497,5.24311377 23.951497,5.6005988 Z" id="Path"></path>
                    </g>
                </g>
            </g>
        </g>
    </g>
</svg>